# xmcd CD database file
#
# Track frame offsets:
#	150
#	28011
#	56445
#	73473
#	106622
#	128710
#	154021
#	184056
#	203051
#
# Disc length: 2977 seconds
#
# Revision: 0
# Processed by: cddbd v1.5.2PL0 Copyright (c) Steve Scherf et al.
# Submitted via: CDex 1.70beta2
#
DISCID=760b9f09
DTITLE=Conjunto Massalia - Partage
DYEAR=2007
DGENRE=Salsa
TTITLE0=Partage
TTITLE1=Canto A Yemaya
TTITLE2=Salsa Universal
TTITLE3=Agradecimientos
TTITLE4=Papi
TTITLE5=Como Un Huracan
TTITLE6=Lilly De Cuba
TTITLE7=Sueno
TTITLE8=Sobrevivire
EXTD=YEAR: 2007
EXTT0=
EXTT1=
EXTT2=
EXTT3=
EXTT4=
EXTT5=
EXTT6=
EXTT7=
EXTT8=
PLAYORDER=
